<svg width="32" height="32" viewBox="0 0 32 32" version="1.1" xmlns="http://www.w3.org/2000/svg" xmlns:xlink="http://www.w3.org/1999/xlink">
<title>backspace-white</title>
<desc>Created using Figma</desc>
<g id="Canvas" transform="translate(350 46)">
<clipPath id="clip-0" clip-rule="evenodd">
<path d="M -350 -46L -318 -46L -318 -14L -350 -14L -350 -46Z" fill="#FFFFFF"/>
</clipPath>
<g id="backspace-white" clip-path="url(#clip-0)">
<g id="Vector">
<use xlink:href="#path0_stroke" transform="translate(-338 -34)" fill="#FBFBFB"/>
</g>
<g id="Rectangle">
<mask id="mask0_outline_ins">
<use xlink:href="#path1_fill" fill="white" transform="translate(-350 -41)"/>
</mask>
<g mask="url(#mask0_outline_ins)">
<use xlink:href="#path2_stroke_2x" transform="translate(-350 -41)" fill="#FBFBFB"/>
</g>
</g>
</g>
</g>
<defs>
<path id="path0_stroke" d="M 0 4L -0.624695 3.21913C -0.86191 3.4089 -1 3.69622 -1 4C -1 4.30378 -0.86191 4.5911 -0.624695 4.78087L 0 4ZM 5.62469 0.780869C 6.05596 0.435859 6.12588 -0.193433 5.78087 -0.624695C 5.43586 -1.05596 4.80657 -1.12588 4.37531 -0.780869L 5.62469 0.780869ZM 4.37531 8.78087C 4.80657 9.12588 5.43586 9.05596 5.78087 8.62469C 6.12588 8.19343 6.05596 7.56414 5.62469 7.21913L 4.37531 8.78087ZM 12 5C 12.5523 5 13 4.55228 13 4C 13 3.44772 12.5523 3 12 3L 12 5ZM 0.624695 4.78087L 5.62469 0.780869L 4.37531 -0.780869L -0.624695 3.21913L 0.624695 4.78087ZM -0.624695 4.78087L 4.37531 8.78087L 5.62469 7.21913L 0.624695 3.21913L -0.624695 4.78087ZM 0 5L 12 5L 12 3L 0 3L 0 5Z"/>
<path id="path1_fill" d="M 8.30341 1.38552C 9.06324 0.505724 10.1682 0 11.3307 0L 27 0C 29.2091 0 31 1.79086 31 4L 31 18C 31 20.2091 29.2091 22 27 22L 11.3307 22C 10.1682 22 9.06324 21.4943 8.30341 20.6145L 2.25796 13.6145C 0.961016 12.1128 0.961016 9.88725 2.25796 8.38552L 8.30341 1.38552Z"/>
<path id="path2_stroke_2x" d="M 8.30341 1.38552L 6.78977 0.0782808L 8.30341 1.38552ZM 11.3307 2L 27 2L 27 -2L 11.3307 -2L 11.3307 2ZM 29 4L 29 18L 33 18L 33 4L 29 4ZM 27 20L 11.3307 20L 11.3307 24L 27 24L 27 20ZM 9.81706 19.3072L 3.77161 12.3072L 0.744314 14.9217L 6.78977 21.9217L 9.81706 19.3072ZM 3.77161 9.69276L 9.81706 2.69276L 6.78977 0.0782808L 0.744314 7.07828L 3.77161 9.69276ZM 11.3307 -2C 9.58698 -2 7.9295 -1.24141 6.78977 0.0782808L 9.81706 2.69276C 10.197 2.25286 10.7495 2 11.3307 2L 11.3307 -2ZM 27 2C 28.1046 2 29 2.89543 29 4L 33 4C 33 0.686292 30.3137 -2 27 -2L 27 2ZM 29 18C 29 19.1046 28.1046 20 27 20L 27 24C 30.3137 24 33 21.3137 33 18L 29 18ZM 11.3307 20C 10.7495 20 10.197 19.7471 9.81706 19.3072L 6.78977 21.9217C 7.9295 23.2414 9.58698 24 11.3307 24L 11.3307 20ZM 3.77161 12.3072C 3.12313 11.5564 3.12313 10.4436 3.77161 9.69276L 0.744314 7.07828C -1.2011 9.33087 -1.2011 12.6691 0.744314 14.9217L 3.77161 12.3072Z"/>
</defs>
</svg>
