<svg width="23" height="16" viewBox="0 0 23 16" version="1.1" xmlns="http://www.w3.org/2000/svg" xmlns:xlink="http://www.w3.org/1999/xlink">
<title>Vector</title>
<desc>Created using Figma</desc>
<g id="Canvas" transform="translate(306 38)">
<g id="Vector">
<use xlink:href="#path0_stroke" transform="translate(-305 -37)" fill="#FBFBFB"/>
</g>
</g>
<defs>
<path id="path0_stroke" d="M 0 7L -0.613941 6.21065C -0.857527 6.4001 -1 6.69141 -1 7C -1 7.30859 -0.857527 7.5999 -0.613941 7.78935L 0 7ZM 9.61394 0.789352C 10.0499 0.450282 10.1284 -0.177993 9.78935 -0.613941C 9.45028 -1.04989 8.82201 -1.12842 8.38606 -0.789352L 9.61394 0.789352ZM 8.38606 14.7894C 8.82201 15.1284 9.45028 15.0499 9.78935 14.6139C 10.1284 14.178 10.0499 13.5497 9.61394 13.2106L 8.38606 14.7894ZM 21 8C 21.5523 8 22 7.55228 22 7C 22 6.44772 21.5523 6 21 6L 21 8ZM 0.613941 7.78935L 9.61394 0.789352L 8.38606 -0.789352L -0.613941 6.21065L 0.613941 7.78935ZM -0.613941 7.78935L 8.38606 14.7894L 9.61394 13.2106L 0.613941 6.21065L -0.613941 7.78935ZM 0 8L 21 8L 21 6L 0 6L 0 8Z"/>
</defs>
</svg>
