<svg width="14" height="14" viewBox="0 0 14 14" version="1.1" xmlns="http://www.w3.org/2000/svg" xmlns:xlink="http://www.w3.org/1999/xlink">
<title>Union</title>
<desc>Created using Figma</desc>
<g id="Canvas" transform="translate(-1637 -1201)">
<g id="Union">
<use xlink:href="#path0_fill" transform="translate(1637 1201)" fill="#1E2227"/>
</g>
</g>
<defs>
<path id="path0_fill" fill-rule="evenodd" d="M 0.292999 11.6066C -0.0976257 11.9971 -0.0976257 12.6303 0.292999 13.0208C 0.683502 13.4113 1.31668 13.4113 1.70718 13.0208L 6.65689 8.07114L 11.6066 13.0208C 11.9971 13.4113 12.6303 13.4113 13.0209 13.0208C 13.4114 12.6303 13.4114 11.9971 13.0209 11.6066L 8.07108 6.65683L 13.0209 1.70706C 13.4114 1.31656 13.4114 0.68338 13.0209 0.292877C 12.6304 -0.0976257 11.9972 -0.0976257 11.6067 0.292877L 6.65701 5.24265L 1.70718 0.292877C 1.31656 -0.0976257 0.683502 -0.0976257 0.292877 0.292877C -0.0976257 0.683441 -0.0976257 1.31656 0.292877 1.70712L 5.24271 6.65695L 0.292999 11.6066Z"/>
</defs>
</svg>
