<svg width="41" height="41" viewBox="0 0 41 41" version="1.1" xmlns="http://www.w3.org/2000/svg" xmlns:xlink="http://www.w3.org/1999/xlink">
<title> Icon</title>
<desc>Created using Figma</desc>
<g id="Canvas" transform="translate(-4385 -26)">
<g id="Button / Blue / Icon">
<clipPath id="clip-0" clip-rule="evenodd">
<path d="M 4389 31L 4421 31L 4421 63L 4389 63L 4389 31Z" fill="#FFFFFF"/>
</clipPath>
<g id="icons / qr-code-black" clip-path="url(#clip-0)">
<g id="Group">
<g id="Rectangle">
<mask id="mask0_outline_ins">
<use xlink:href="#path0_fill" fill="white" transform="translate(4397 38)"/>
</mask>
<g mask="url(#mask0_outline_ins)">
<use xlink:href="#path1_stroke_2x" transform="translate(4397 38)" fill="#1E2227"/>
</g>
</g>
<g id="Rectangle">
<mask id="mask1_outline_ins">
<use xlink:href="#path2_fill" fill="white" transform="translate(4397 49)"/>
</mask>
<g mask="url(#mask1_outline_ins)">
<use xlink:href="#path3_stroke_2x" transform="translate(4397 49)" fill="#1E2227"/>
</g>
</g>
<g id="Rectangle">
<mask id="mask2_outline_ins">
<use xlink:href="#path4_fill" fill="white" transform="translate(4404 51)"/>
</mask>
<g mask="url(#mask2_outline_ins)">
<use xlink:href="#path5_stroke_2x" transform="translate(4404 51)" fill="#1E2227"/>
</g>
</g>
<g id="Rectangle">
<mask id="mask3_outline_ins">
<use xlink:href="#path6_fill" fill="white" transform="matrix(-1 0 0 1 4401 51)"/>
</mask>
<g mask="url(#mask3_outline_ins)">
<use xlink:href="#path7_stroke_2x" transform="matrix(-1 0 0 1 4401 51)" fill="#1E2227"/>
</g>
</g>
<g id="Rectangle">
<mask id="mask4_outline_ins">
<use xlink:href="#path8_fill" fill="white" transform="matrix(-1 0 0 -1 4405 50)"/>
</mask>
<g mask="url(#mask4_outline_ins)">
<use xlink:href="#path9_stroke_2x" transform="matrix(-1 0 0 -1 4405 50)" fill="#1E2227"/>
</g>
</g>
<g id="Rectangle">
<mask id="mask5_outline_ins">
<use xlink:href="#path10_fill" fill="white" transform="matrix(1 0 0 -1 4397 48)"/>
</mask>
<g mask="url(#mask5_outline_ins)">
<use xlink:href="#path11_stroke_2x" transform="matrix(1 0 0 -1 4397 48)" fill="#1E2227"/>
</g>
</g>
<g id="Rectangle">
<mask id="mask6_outline_ins">
<use xlink:href="#path12_fill" fill="white" transform="translate(4399 40)"/>
</mask>
<g mask="url(#mask6_outline_ins)">
<use xlink:href="#path13_stroke_2x" transform="translate(4399 40)" fill="#1E2227"/>
</g>
</g>
<g id="Rectangle">
<mask id="mask7_outline_ins">
<use xlink:href="#path0_fill" fill="white" transform="translate(4406 38)"/>
</mask>
<g mask="url(#mask7_outline_ins)">
<use xlink:href="#path1_stroke_2x" transform="translate(4406 38)" fill="#1E2227"/>
</g>
</g>
<g id="Rectangle">
<mask id="mask8_outline_ins">
<use xlink:href="#path12_fill" fill="white" transform="matrix(-1 0 0 1 4412 40)"/>
</mask>
<g mask="url(#mask8_outline_ins)">
<use xlink:href="#path13_stroke_2x" transform="matrix(-1 0 0 1 4412 40)" fill="#1E2227"/>
</g>
</g>
<g id="Rectangle">
<mask id="mask9_outline_ins">
<use xlink:href="#path0_fill" fill="white" transform="translate(4406 47)"/>
</mask>
<g mask="url(#mask9_outline_ins)">
<use xlink:href="#path1_stroke_2x" transform="translate(4406 47)" fill="#1E2227"/>
</g>
</g>
<g id="Rectangle">
<mask id="mask10_outline_ins">
<use xlink:href="#path12_fill" fill="white" transform="matrix(-1 0 0 1 4412 49)"/>
</mask>
<g mask="url(#mask10_outline_ins)">
<use xlink:href="#path13_stroke_2x" transform="matrix(-1 0 0 1 4412 49)" fill="#1E2227"/>
</g>
</g>
</g>
</g>
<g id="Union">
<use xlink:href="#path14_fill" transform="translate(4394 35)" fill="#1E2227" fill-opacity="0.2"/>
</g>
</g>
</g>
<defs>
<path id="path0_fill" d="M 0 0L 8 0L 8 8L 0 8L 0 0Z"/>
<path id="path1_stroke_2x" d="M 0 0L 0 -1L -1 -1L -1 0L 0 0ZM 8 0L 9 0L 9 -1L 8 -1L 8 0ZM 8 8L 8 9L 9 9L 9 8L 8 8ZM 0 8L -1 8L -1 9L 0 9L 0 8ZM 0 1L 8 1L 8 -1L 0 -1L 0 1ZM 7 0L 7 8L 9 8L 9 0L 7 0ZM 8 7L 0 7L 0 9L 8 9L 8 7ZM 1 8L 1 0L -1 0L -1 8L 1 8Z"/>
<path id="path2_fill" d="M 0 0L 6 0L 6 6L 0 6L 0 0Z"/>
<path id="path3_stroke_2x" d="M 0 0L 0 -1L -1 -1L -1 0L 0 0ZM 6 0L 7 0L 7 -1L 6 -1L 6 0ZM 6 6L 6 7L 7 7L 7 6L 6 6ZM 0 6L -1 6L -1 7L 0 7L 0 6ZM 0 1L 6 1L 6 -1L 0 -1L 0 1ZM 5 0L 5 6L 7 6L 7 0L 5 0ZM 6 5L 0 5L 0 7L 6 7L 6 5ZM 1 6L 1 0L -1 0L -1 6L 1 6Z"/>
<path id="path4_fill" d="M 0 0L 1 0L 1 4L 0 4L 0 0Z"/>
<path id="path5_stroke_2x" d="M 0 0L 0 -1L -1 -1L -1 0L 0 0ZM 1 0L 2 0L 2 -1L 1 -1L 1 0ZM 1 4L 1 5L 2 5L 2 4L 1 4ZM 0 4L -1 4L -1 5L 0 5L 0 4ZM 0 1L 1 1L 1 -1L 0 -1L 0 1ZM 0 0L 0 4L 2 4L 2 0L 0 0ZM 1 3L 0 3L 0 5L 1 5L 1 3ZM 1 4L 1 0L -1 0L -1 4L 1 4Z"/>
<path id="path6_fill" d="M 0 0L 2 0L 2 2L 0 2L 0 0Z"/>
<path id="path7_stroke_2x" d="M 0 0L 0 -1L -1 -1L -1 0L 0 0ZM 2 0L 3 0L 3 -1L 2 -1L 2 0ZM 2 2L 2 3L 3 3L 3 2L 2 2ZM 0 2L -1 2L -1 3L 0 3L 0 2ZM 0 1L 2 1L 2 -1L 0 -1L 0 1ZM 1 0L 1 2L 3 2L 3 0L 1 0ZM 2 1L 0 1L 0 3L 2 3L 2 1ZM 1 2L 1 0L -1 0L -1 2L 1 2Z"/>
<path id="path8_fill" d="M 0 0L 3 0L 3 3L 0 3L 0 0Z"/>
<path id="path9_stroke_2x" d="M 0 0L 0 -1L -1 -1L -1 0L 0 0ZM 3 0L 4 0L 4 -1L 3 -1L 3 0ZM 3 3L 3 4L 4 4L 4 3L 3 3ZM 0 3L -1 3L -1 4L 0 4L 0 3ZM 0 1L 3 1L 3 -1L 0 -1L 0 1ZM 2 0L 2 3L 4 3L 4 0L 2 0ZM 3 2L 0 2L 0 4L 3 4L 3 2ZM 1 3L 1 0L -1 0L -1 3L 1 3Z"/>
<path id="path10_fill" d="M 0 0L 4 0L 4 1L 0 1L 0 0Z"/>
<path id="path11_stroke_2x" d="M 0 0L 0 -1L -1 -1L -1 0L 0 0ZM 4 0L 5 0L 5 -1L 4 -1L 4 0ZM 4 1L 4 2L 5 2L 5 1L 4 1ZM 0 1L -1 1L -1 2L 0 2L 0 1ZM 0 1L 4 1L 4 -1L 0 -1L 0 1ZM 3 0L 3 1L 5 1L 5 0L 3 0ZM 4 0L 0 0L 0 2L 4 2L 4 0ZM 1 1L 1 0L -1 0L -1 1L 1 1Z"/>
<path id="path12_fill" d="M 0 0L 4 0L 4 4L 0 4L 0 0Z"/>
<path id="path13_stroke_2x" d="M 0 0L 0 -1L -1 -1L -1 0L 0 0ZM 4 0L 5 0L 5 -1L 4 -1L 4 0ZM 4 4L 4 5L 5 5L 5 4L 4 4ZM 0 4L -1 4L -1 5L 0 5L 0 4ZM 0 1L 4 1L 4 -1L 0 -1L 0 1ZM 3 0L 3 4L 5 4L 5 0L 3 0ZM 4 3L 0 3L 0 5L 4 5L 4 3ZM 1 4L 1 0L -1 0L -1 4L 1 4Z"/>
<path id="path14_fill" fill-rule="evenodd" d="M 0.000244141 0L 1.00024 0L 5.00024 0L 5.00024 1L 1.00024 1L 1.00024 5L 0.000244141 5L 0.000244141 1L 0.000244141 0ZM 0 22.9993L 0.017334 21.9994L 0.0871582 18L 1.08716 18.0175L 1.01733 22.0169L 5.0166 22.0867L 4.99927 23.0865L 0.999756 23.0167L 0 22.9993ZM 23.0002 1L 23.0002 0L 22.0002 0L 18.0002 0L 18.0002 1L 22.0002 1L 22.0002 5L 23.0002 5L 23.0002 1ZM 18.0435 23.0432L 22.0435 23.0432L 23.0435 23.0432L 23.0435 22.0432L 23.0435 18.0432L 22.0435 18.0432L 22.0435 22.0432L 18.0435 22.0432L 18.0435 23.0432Z"/>
</defs>
</svg>
