<svg width="18" height="22" viewBox="0 0 18 22" version="1.1" xmlns="http://www.w3.org/2000/svg" xmlns:xlink="http://www.w3.org/1999/xlink">
<title>Union</title>
<desc>Created using Figma</desc>
<g id="Canvas" transform="translate(385 43)">
<g id="Union">
<use xlink:href="#path0_fill" transform="translate(-385 -42.6048)" fill="#FBFBFB"/>
</g>
</g>
<defs>
<path id="path0_fill" fill-rule="evenodd" d="M 12.2244 1.81647C 12.6753 1.49752 12.7822 0.873447 12.4633 0.422573C 12.1443 -0.0283051 11.5203 -0.13525 11.0694 0.183701L 6.45123 3.4506C 6.00034 3.76955 5.8934 4.39362 6.21234 4.8445L 9.47925 9.46265C 9.79819 9.91353 10.4223 10.0205 10.8731 9.70152C 11.324 9.38257 11.431 8.7585 11.112 8.30763L 9.20206 5.60766C 12.9746 5.7146 16 8.80639 16 12.6048C 16 16.4708 12.866 19.6048 9 19.6048C 5.134 19.6048 2 16.4708 2 12.6048C 2 12.0525 1.55228 11.6048 1 11.6048C 0.447723 11.6048 0 12.0525 0 12.6048C 0 17.5754 4.02945 21.6048 9 21.6048C 13.9706 21.6048 18 17.5754 18 12.6048C 18 7.85704 14.3237 3.96792 9.66245 3.62881L 12.2244 1.81647Z"/>
</defs>
</svg>
