<svg width="16" height="16" viewBox="0 0 16 16" version="1.1" xmlns="http://www.w3.org/2000/svg" xmlns:xlink="http://www.w3.org/1999/xlink">
<title>+</title>
<desc>Created using Figma</desc>
<g id="Canvas" transform="translate(26 173)">
<g id="+">
<g id="Vector">
<use xlink:href="#path0_stroke" transform="translate(-21 -168)" fill="#FFC125"/>
</g>
<g id="Ellipse">
<mask id="mask0_outline_ins">
<use xlink:href="#path1_fill" fill="white" transform="translate(-26 -173)"/>
</mask>
<g mask="url(#mask0_outline_ins)">
<use xlink:href="#path2_stroke_2x" transform="translate(-26 -173)" fill="#FFC125"/>
</g>
</g>
</g>
</g>
<defs>
<path id="path0_stroke" d="M 4 0C 4 -0.552285 3.55228 -1 3 -1C 2.44772 -1 2 -0.552285 2 0L 4 0ZM 2 6C 2 6.55228 2.44772 7 3 7C 3.55228 7 4 6.55228 4 6L 2 6ZM 0 2C -0.552285 2 -1 2.44772 -1 3C -1 3.55228 -0.552285 4 0 4L 0 2ZM 6 4C 6.55228 4 7 3.55228 7 3C 7 2.44772 6.55228 2 6 2L 6 4ZM 4 3L 4 0L 2 0L 2 3L 4 3ZM 2 0L 2 6L 4 6L 4 0L 2 0ZM 4 6L 4 3L 2 3L 2 6L 4 6ZM 0 4L 6 4L 6 2L 0 2L 0 4Z"/>
<path id="path1_fill" d="M 16 8C 16 12.4183 12.4183 16 8 16C 3.58172 16 0 12.4183 0 8C 0 3.58172 3.58172 0 8 0C 12.4183 0 16 3.58172 16 8Z"/>
<path id="path2_stroke_2x" d="M 14 8C 14 11.3137 11.3137 14 8 14L 8 18C 13.5228 18 18 13.5228 18 8L 14 8ZM 8 14C 4.68629 14 2 11.3137 2 8L -2 8C -2 13.5228 2.47715 18 8 18L 8 14ZM 2 8C 2 4.68629 4.68629 2 8 2L 8 -2C 2.47715 -2 -2 2.47715 -2 8L 2 8ZM 8 2C 11.3137 2 14 4.68629 14 8L 18 8C 18 2.47715 13.5228 -2 8 -2L 8 2Z"/>
</defs>
</svg>
