<svg width="16" height="16" viewBox="0 0 16 16" version="1.1" xmlns="http://www.w3.org/2000/svg" xmlns:xlink="http://www.w3.org/1999/xlink">
<title>i</title>
<desc>Created using Figma</desc>
<g id="Canvas" transform="translate(-59 173)">
<g id="i">
<g id="Vector">
<use xlink:href="#path0_stroke" transform="translate(64 -168)" fill="#FFC125"/>
</g>
<g id="Ellipse">
<mask id="mask0_outline_ins">
<use xlink:href="#path1_fill" fill="white" transform="translate(59 -173)"/>
</mask>
<g mask="url(#mask0_outline_ins)">
<use xlink:href="#path2_stroke_2x" transform="translate(59 -173)" fill="#FFC125"/>
</g>
</g>
</g>
</g>
<defs>
<path id="path0_stroke" d="M 2 6C 2 6.55228 2.44772 7 3 7C 3.55228 7 4 6.55228 4 6L 2 6ZM 3 0L 3.70711 -0.707107C 3.31658 -1.09763 2.68342 -1.09763 2.29289 -0.707107L 3 0ZM 5.29289 3.70711C 5.68342 4.09763 6.31658 4.09763 6.70711 3.70711C 7.09763 3.31658 7.09763 2.68342 6.70711 2.29289L 5.29289 3.70711ZM -0.707107 2.29289C -1.09763 2.68342 -1.09763 3.31658 -0.707107 3.70711C -0.316583 4.09763 0.316583 4.09763 0.707107 3.70711L -0.707107 2.29289ZM 4 6L 4 0L 2 0L 2 6L 4 6ZM 2.29289 0.707107L 5.29289 3.70711L 6.70711 2.29289L 3.70711 -0.707107L 2.29289 0.707107ZM 2.29289 -0.707107L -0.707107 2.29289L 0.707107 3.70711L 3.70711 0.707107L 2.29289 -0.707107Z"/>
<path id="path1_fill" d="M 16 8C 16 12.4183 12.4183 16 8 16C 3.58172 16 0 12.4183 0 8C 0 3.58172 3.58172 0 8 0C 12.4183 0 16 3.58172 16 8Z"/>
<path id="path2_stroke_2x" d="M 14 8C 14 11.3137 11.3137 14 8 14L 8 18C 13.5228 18 18 13.5228 18 8L 14 8ZM 8 14C 4.68629 14 2 11.3137 2 8L -2 8C -2 13.5228 2.47715 18 8 18L 8 14ZM 2 8C 2 4.68629 4.68629 2 8 2L 8 -2C 2.47715 -2 -2 2.47715 -2 8L 2 8ZM 8 2C 11.3137 2 14 4.68629 14 8L 18 8C 18 2.47715 13.5228 -2 8 -2L 8 2Z"/>
</defs>
</svg>
