<svg width="23" height="18" viewBox="0 0 23 18" version="1.1" xmlns="http://www.w3.org/2000/svg" xmlns:xlink="http://www.w3.org/1999/xlink">
<title>Group</title>
<desc>Created using Figma</desc>
<g id="Canvas" transform="translate(211 283)">
<g id="Group">
<g id="Vector">
<use xlink:href="#path0_stroke" transform="translate(-210 -273.889)" fill="#1E2227"/>
</g>
<g id="Vector">
<use xlink:href="#path0_stroke" transform="matrix(-1 -1.22465e-16 1.22465e-16 -1 -189 -274.222)" fill="#1E2227"/>
</g>
</g>
</g>
<defs>
<path id="path0_stroke" d="M 0 3.88889L -0.613941 3.09954C -0.857527 3.28899 -1 3.5803 -1 3.88889C -1 4.19748 -0.857527 4.48878 -0.613941 4.67824L 0 3.88889ZM 21 4.88889C 21.5523 4.88889 22 4.44117 22 3.88889C 22 3.3366 21.5523 2.88889 21 2.88889L 21 4.88889ZM 5.61394 0.789352C 6.04989 0.450282 6.12842 -0.177993 5.78935 -0.613941C 5.45028 -1.04989 4.82201 -1.12842 4.38606 -0.789352L 5.61394 0.789352ZM 4.38606 8.56713C 4.82201 8.9062 5.45028 8.82767 5.78935 8.39172C 6.12842 7.95577 6.04989 7.3275 5.61394 6.98843L 4.38606 8.56713ZM 0 4.88889L 21 4.88889L 21 2.88889L 0 2.88889L 0 4.88889ZM 0.613941 4.67824L 5.61394 0.789352L 4.38606 -0.789352L -0.613941 3.09954L 0.613941 4.67824ZM -0.613941 4.67824L 4.38606 8.56713L 5.61394 6.98843L 0.613941 3.09954L -0.613941 4.67824Z"/>
</defs>
</svg>
